<?xml version="1.0" encoding="UTF-8" standalone="no"?>
<svg
   xmlns:dc="http://purl.org/dc/elements/1.1/"
   xmlns:cc="http://creativecommons.org/ns#"
   xmlns:rdf="http://www.w3.org/1999/02/22-rdf-syntax-ns#"
   xmlns:svg="http://www.w3.org/2000/svg"
   xmlns="http://www.w3.org/2000/svg"
   xmlns:sodipodi="http://sodipodi.sourceforge.net/DTD/sodipodi-0.dtd"
   xmlns:inkscape="http://www.inkscape.org/namespaces/inkscape"
   viewBox="0 0 267.47839 61.72578"
   version="1.1"
   id="svg10"
   sodipodi:docname="light_logo.svg"
   inkscape:version="1.0 (4035a4fb49, 2020-05-01)"
   width="267.47839"
   height="61.72578">
  <metadata
     id="metadata16">
    <rdf:RDF>
      <cc:Work
         rdf:about="">
        <dc:format>image/svg+xml</dc:format>
        <dc:type
           rdf:resource="http://purl.org/dc/dcmitype/StillImage" />
        <dc:title></dc:title>
      </cc:Work>
    </rdf:RDF>
  </metadata>
  <defs
     id="defs14">
    <inkscape:perspective
       id="perspective1739"
       inkscape:persp3d-origin="117.17888 : 28.667535 : 1"
       inkscape:vp_z="234.35777 : 36.932097 : 1"
       inkscape:vp_y="0 : 1000 : 0"
       inkscape:vp_x="0 : 36.932097 : 1"
       sodipodi:type="inkscape:persp3d" />
    <rect
       x="242.51755"
       y="79.323921"
       width="188.8773"
       height="102.50742"
       id="rect936" />
    <rect
       x="56.595005"
       y="8.8642778"
       width="115.69019"
       height="31.820484"
       id="rect901" />
    <rect
       id="rect901-6"
       height="31.820484"
       width="115.69019"
       y="8.8642778"
       x="56.595005" />
    <rect
       id="rect914"
       height="31.820484"
       width="115.69019"
       y="8.8642778"
       x="56.595005" />
    <clipPath
       clipPathUnits="userSpaceOnUse"
       id="clipPath1817">
      <path
         fill="#aa0000"
         d="m -55.800456,-13.053068 2.715514,-3.984516 -0.180725,-5.069838 h -3.264932 v 3.180019 h -3.365645 v -3.180018 h -2.052257 -2.702315 v 3.180019 h -2.823629 v -3.180019 h -3.158763 l 0.0068,5.068902 2.822788,3.985451 h -1.44204 l 0.0091,2.084005 h 1.646014 l -1.33809,7.304745 -1.711401,5.498737 -2.053994,0.624728 -0.138544,2.911627 21.745038,-0.09841 0.05563,-2.628241 -2.379569,-0.687841 -1.280101,-5.566206 -1.13628,-7.359139 h 1.348373 l 0.01312,-2.084005 h -1.33403"
         id="path1819"
         sodipodi:nodetypes="cccccccccccccccccccccccccccccc"
         style="stroke-width:0.926338" />
    </clipPath>
  </defs>
  <sodipodi:namedview
     inkscape:document-rotation="0"
     pagecolor="#19191b"
     bordercolor="#666666"
     borderopacity="1"
     objecttolerance="10"
     gridtolerance="10"
     guidetolerance="10"
     inkscape:pageopacity="1"
     inkscape:pageshadow="2"
     inkscape:window-width="1920"
     inkscape:window-height="1013"
     id="namedview12"
     showgrid="false"
     inkscape:zoom="3.1591336"
     inkscape:cx="141.37623"
     inkscape:cy="29.105116"
     inkscape:window-x="-9"
     inkscape:window-y="-9"
     inkscape:window-maximized="1"
     inkscape:current-layer="svg10"
     inkscape:snap-global="false"
     showguides="false" />
  <rect
     y="0"
     x="0"
     height="61.72578"
     width="267.47839"
     id="rect856"
     style="fill:#ffffff;fill-opacity:1;stroke-width:1.86282;stroke-linecap:round;stop-color:#000000" />
  <text
     xml:space="preserve"
     id="text899"
     style="font-style:normal;font-variant:normal;font-weight:normal;font-stretch:normal;font-size:17.3333px;line-height:1.25;font-family:Roboto;-inkscape-font-specification:Roboto;letter-spacing:0px;word-spacing:0px;white-space:pre;shape-inside:url(#rect901);fill:#262626;fill-opacity:1;stroke:none;"
     transform="matrix(2.1706724,0,0,2.1706724,-54.932506,-20.34713)"><tspan
       x="56.595703"
       y="24.478281"><tspan
         style="font-style:normal;font-variant:normal;font-weight:bold;font-stretch:normal;font-family:Arial;-inkscape-font-specification:'Arial Bold';fill:#262626;fill-opacity:1">WEBFORT</tspan></tspan></text>
  <text
     transform="matrix(1.7112922,0,0,1.7112922,-25.309893,21.985541)"
     style="font-style:normal;font-variant:normal;font-weight:normal;font-stretch:normal;font-size:11.7557px;line-height:1.25;font-family:Roboto;-inkscape-font-specification:Roboto;letter-spacing:1.29518px;word-spacing:0px;white-space:pre;shape-inside:url(#rect901-6);fill:#404040;fill-opacity:1;stroke:none;"
     id="text899-4"
     xml:space="preserve"><tspan
       x="56.595703"
       y="19.590316"><tspan
         style="font-style:normal;font-variant:normal;font-weight:normal;font-stretch:normal;font-size:11.7557px;font-family:sans-serif;-inkscape-font-specification:sans-serif;fill:#404040;fill-opacity:1">TECHNOLOGIES</tspan></tspan></text>
  <text
     transform="matrix(1.1206897,0,0,1.1206897,4.9457678,-0.0187943)"
     xml:space="preserve"
     id="text934"
     style="font-style:normal;font-variant:normal;font-weight:normal;font-stretch:normal;font-size:17.3333px;line-height:1.25;font-family:Roboto;-inkscape-font-specification:Roboto;letter-spacing:0px;word-spacing:0px;white-space:pre;shape-inside:url(#rect936);fill:#000000;fill-opacity:1;stroke:none;" />
  <path
     d="m 31.183165,23.679854 2.466536,0.04771 -0.03049,4.827412 h 4.248401 v -4.805775 h 4.281384 v 6.827988 l -3.942106,4.459733 -7.023719,0.988485 z"
     style="fill:#ffb300;fill-opacity:1;stroke-width:0.960395"
     id="path1819-6-0"
     sodipodi:nodetypes="cccccccccc" />
  <g
     transform="matrix(1.1206897,0,0,1.1206897,6.7401716,4.6116966)"
     id="g1785">
    <path
       sodipodi:nodetypes="cccccccccc"
       d="m 22.090458,17.020789 -1.690334,0.04257 0.02721,4.307537 H 16.636453 V 17.082667 H 12.81614 v 6.092666 l 3.517573,3.979454 5.756742,1.078061 z"
       style="fill:#dea300;fill-opacity:1;stroke-width:0.856968"
       id="path1819-6" />
    <path
       sodipodi:nodetypes="ccccccc"
       d="m 15.216947,27.009095 -0.10395,3.801379 1.373803,0.363825 -1.418282,7.815664 h 7.021941 l 0.07913,-11.19185 z"
       style="fill:#ea4235;fill-opacity:1;stroke-width:0.936984"
       id="path1819-5" />
    <path
       sodipodi:nodetypes="ccccccc"
       d="m 15.194782,36.476396 -1.070309,3.695553 h -3.08008 v 4.537399 L 21.810671,47.8289 22.090458,37.210534 Z"
       style="fill:#34a853;fill-opacity:1;stroke-width:0.856968"
       id="path1819-0" />
  </g>
  <path
     sodipodi:nodetypes="ccccccc"
     d="m 39.458444,34.872303 0.09708,4.298999 -1.733765,0.330071 1.803029,8.797766 h -8.441622 l 0.133029,-12.663447 z"
     style="fill:#f4511e;fill-opacity:1;stroke-width:1.05007"
     id="path1819-5-6" />
  <path
     sodipodi:nodetypes="ccccccc"
     d="m 39.483272,45.483552 1.199484,4.141568 h 3.451814 v 5.085016 L 30.869611,58.07297 31.183165,46.306293 Z"
     style="fill:#7cb342;fill-opacity:1;stroke-width:0.960395"
     id="path1819-0-6" />
  <rect
     ry="4.5999999"
     rx="6.6613381e-16"
     y="23.174093"
     x="31.071962"
     height="35.557026"
     width="13.670955"
     id="rect1780"
     style="opacity:1;vector-effect:none;fill:#ffffff;fill-opacity:0;stroke:none;stroke-width:1.57768;stroke-linecap:butt;stroke-linejoin:miter;stroke-miterlimit:4;stroke-dasharray:none;stroke-dashoffset:0;stroke-opacity:1" />
  <path
     style="stroke:#1976d2;stroke-width:4.48276;stroke-miterlimit:4;stroke-dasharray:none;stroke-opacity:1"
     id="path6-3"
     d="m 44.955891,17.481806 c 0,0 -0.210718,-10.6625029 -12.752865,-10.6286569 -12.542148,0.033845 -12.456964,10.8120799 -12.456964,10.8120799 0,0 -10.755538,1.077604 -10.7645047,9.97576 -0.010086,8.898156 10.7645047,9.703904 10.7645047,9.703904 m 23.627209,-0.01966 c 0,0 12.937801,2.074417 12.725963,-9.682067 -0.594043,-7.867499 -6.228482,-9.77487 -9.15162,-9.96921 -3.936373,-0.262032 -7.535375,2.871429 -7.535375,2.871429"
     stroke-width="1.35133"
     stroke="#008ed6"
     fill="none" />
</svg>
